# xmcd CD database file
# Generated: Wed May 1 20:10:41 2002 by KSCD
# 
# Track frame offsets:
#       150
#       17385
#       30184
#       42917
#       60405
#       77526
#       95834
#       109055
#       125558
#       140842
#
# Disc length: 2070 seconds
#
# Revision: 1
# Processed by: cddbd v1.4PL0 Copyright (c) Steve Scherf et al.
# Submitted via: Kscd 1.3.3
#
DISCID=7808140a
DTITLE=On The Money - No Gold
DYEAR=1900
DGENRE=
TTITLE0=No Gold
TTITLE1=She Didn't Say A Word
TTITLE2=Colorado Cowboy
TTITLE3=Angel of the Eving Sun
TTITLE4=I Can't Sleep At Night
TTITLE5=Leah
TTITLE6=The Kiss
TTITLE7=She's Gone
TTITLE8=I'm So Miserable
TTITLE9=Pint A Whiskey, Pack A Day
EXTD=
EXTT0=
EXTT1=
EXTT2=
EXTT3=
EXTT4=
EXTT5=
EXTT6=
EXTT7=
EXTT8=
EXTT9=
PLAYORDER=
